<?xml version="1.0" standalone="no"?>
<!DOCTYPE svg PUBLIC "-//W3C//DTD SVG 20010904//EN"
 "http://www.w3.org/TR/2001/REC-SVG-20010904/DTD/svg10.dtd">
<svg version="1.0" xmlns="http://www.w3.org/2000/svg"
 width="960.000000pt" height="960.000000pt" viewBox="0 0 960.000000 960.000000"
 preserveAspectRatio="xMidYMid meet">
<metadata>
Created by potrace 1.11, written by Peter Selinger 2001-2013
</metadata>
<g transform="translate(0.000000,960.000000) scale(0.100000,-0.100000)"
fill="#000000" stroke="none">
<path d="M0 4800 l0 -4800 4800 0 4800 0 0 4800 0 4800 -4800 0 -4800 0 0
-4800z m5421 3383 c63 -20 144 -94 152 -139 3 -16 9 -136 13 -267 l6 -239 32
-36 c53 -61 178 -103 259 -88 30 6 55 31 188 192 104 127 165 192 190 205 44
22 144 25 196 6 56 -21 120 -74 149 -124 46 -78 41 -120 -50 -373 l-77 -215
16 -42 c29 -75 158 -174 229 -176 22 0 90 34 241 121 200 117 212 122 265 122
138 0 260 -125 260 -265 0 -76 -15 -100 -179 -300 -134 -162 -141 -172 -141
-215 0 -85 87 -221 160 -248 18 -7 81 1 235 29 239 44 290 47 343 20 145 -75
191 -310 79 -408 -18 -15 -118 -79 -224 -142 -215 -127 -219 -132 -217 -236 1
-78 27 -154 65 -193 17 -18 35 -32 39 -32 22 0 430 -72 458 -81 45 -15 89 -54
115 -103 18 -33 22 -57 22 -131 0 -94 -12 -132 -59 -183 -37 -41 -73 -53 -309
-98 -260 -49 -263 -50 -298 -143 -25 -67 -29 -173 -8 -216 11 -24 58 -55 217
-146 112 -64 212 -125 224 -135 51 -46 71 -149 47 -239 -24 -91 -109 -177
-187 -189 -22 -3 -129 10 -262 32 -124 20 -235 36 -246 34 -67 -10 -167 -158
-168 -250 -1 -47 1 -49 153 -227 84 -99 160 -194 167 -212 24 -55 18 -123 -17
-191 -49 -98 -133 -156 -229 -156 -52 -1 -67 6 -264 117 -145 81 -218 117
-240 117 -74 -1 -179 -78 -221 -163 l-26 -53 87 -234 c76 -206 85 -240 80
-279 -17 -123 -137 -220 -272 -221 -49 0 -65 -4 -80 -21 -10 -12 -62 -52 -114
-89 -233 -166 -374 -318 -464 -496 -125 -252 -110 -526 43 -779 23 -37 38 -71
35 -76 -3 -5 -31 -27 -63 -48 l-58 -40 -46 77 c-58 97 -102 203 -130 312 -29
118 -29 312 1 423 30 110 82 225 148 325 76 116 276 313 421 417 62 44 112 85
113 90 0 11 -206 257 -246 293 -62 56 -266 -1 -318 -89 -13 -23 -16 -66 -16
-270 0 -227 -1 -246 -21 -287 -61 -126 -282 -171 -392 -81 -47 39 -50 45 -135
269 -89 236 -88 233 -125 255 -39 23 -165 32 -224 16 -75 -21 -86 -38 -169
-271 -42 -118 -87 -230 -101 -248 -39 -52 -96 -76 -183 -76 -64 -1 -84 4 -135
29 -33 17 -72 47 -89 68 -28 35 -30 46 -37 150 -4 62 -8 176 -8 255 -1 162 -8
184 -69 224 -78 52 -200 76 -250 49 -12 -6 -82 -84 -155 -174 -193 -232 -199
-237 -306 -237 -142 0 -282 133 -269 254 3 23 39 139 81 259 76 216 77 218 61
255 -19 46 -85 115 -143 149 -80 48 -100 42 -326 -93 l-200 -119 -70 0 c-63 0
-76 4 -122 33 -30 19 -67 56 -90 89 -35 50 -38 62 -41 132 -4 87 -2 92 117
235 194 234 201 244 201 289 0 82 -88 222 -157 248 -19 7 -82 -1 -247 -31
-250 -45 -275 -47 -331 -21 -53 25 -88 64 -120 134 -23 50 -27 69 -23 131 5
114 20 130 239 260 240 142 244 145 258 201 21 82 -22 237 -74 271 -12 8 -127
32 -256 55 -263 45 -288 55 -335 135 -36 62 -45 172 -19 241 22 58 77 119 118
132 18 6 128 28 246 50 118 22 224 47 236 55 12 8 33 36 46 63 20 40 24 64 24
145 0 84 -3 100 -20 117 -11 11 -108 70 -215 131 -107 61 -205 121 -217 132
-87 81 -61 290 47 379 67 56 84 57 356 14 245 -39 245 -39 280 -20 67 36 135
153 137 236 1 44 -2 49 -154 227 -85 101 -159 195 -166 210 -7 15 -12 52 -13
83 0 101 73 205 178 251 81 36 115 26 350 -105 115 -65 220 -117 233 -117 41
1 112 39 162 88 56 54 77 90 77 128 0 15 -34 120 -76 233 -42 113 -78 221 -81
238 -20 124 120 264 265 267 100 2 122 -15 298 -219 86 -101 166 -186 178
-189 75 -20 197 16 262 79 l44 42 0 252 c0 228 2 255 19 289 63 123 260 172
379 95 52 -34 72 -73 158 -303 45 -122 77 -194 94 -212 45 -45 150 -61 244
-37 77 19 87 36 166 259 40 113 79 216 86 230 47 94 178 134 305 93z"/>
<path d="M4595 7374 c-16 -2 -70 -9 -120 -15 -146 -18 -320 -57 -475 -108
-397 -131 -724 -333 -1020 -630 -414 -415 -655 -905 -742 -1506 -20 -139 -17
-532 6 -680 23 -150 83 -390 131 -521 88 -241 256 -538 421 -744 88 -109 275
-296 384 -384 547 -438 1258 -642 1940 -556 345 44 727 176 1020 354 52 32 99
62 104 66 9 9 -80 152 -155 247 l-49 61 -48 -15 c-31 -9 -75 -13 -127 -11
-120 6 -193 45 -315 168 -52 53 -115 128 -140 168 -89 143 -612 947 -625 961
-17 18 -71 27 -240 41 -95 8 -149 17 -168 28 -26 16 -132 164 -171 240 -23 44
-20 103 7 143 13 20 72 67 145 115 68 45 128 86 133 91 6 6 -127 218 -352 563
-198 305 -365 565 -370 578 -21 56 3 136 52 170 18 12 17 15 -11 60 -22 36
-38 89 -65 216 -19 92 -35 170 -35 172 0 14 282 -212 299 -239 11 -18 25 -38
29 -45 8 -12 15 -11 42 3 41 21 111 15 149 -12 19 -15 677 -1007 750 -1132 6
-10 35 4 125 63 151 98 167 106 216 106 64 0 95 -23 158 -118 111 -165 115
-187 50 -320 -37 -75 -43 -95 -43 -152 l0 -65 235 -368 c129 -202 273 -425
319 -495 212 -323 269 -548 182 -724 -17 -35 -36 -70 -42 -79 -9 -12 -2 -28
42 -85 30 -38 78 -107 108 -152 l53 -82 27 21 c290 227 541 538 712 884 276
560 340 1178 184 1791 -45 177 -91 298 -184 489 -131 267 -280 475 -490 686
-400 400 -879 642 -1458 735 -93 15 -507 28 -578 18z"/>
</g>
</svg>
